<svg width="14" height="15" viewBox="0 0 14 15" fill="none" xmlns="http://www.w3.org/2000/svg">
<path d="M11.8999 8.64965V10.7495H13.9997V12.1494H11.8992L11.8999 14.2493H10.5L10.4993 12.1494H8.40013V10.7495H10.5V8.64965H11.8999ZM12.7699 2.18C14.3532 3.76749 14.4078 6.29571 12.9351 7.9441L11.9412 6.95157C12.8728 5.88484 12.8238 4.21196 11.7788 3.16903C10.7268 2.1198 9.03498 2.075 7.93606 3.06194L7.00162 3.90048L6.06649 3.06264C4.96406 2.0743 3.27298 2.1177 2.22095 3.17043C1.17802 4.21336 1.12553 5.88274 2.08656 6.98587L7.98856 12.8977L7.00022 13.8888L1.06463 7.9448C-0.408068 6.29571 -0.352771 3.76329 1.22982 2.18C2.81521 0.595306 5.35114 0.542109 7.00022 2.02041C8.64441 0.544209 11.1852 0.593206 12.7692 2.18H12.7699Z" fill="#878787"/>
</svg>
